<svg width="24" height="25" viewBox="0 0 24 25" fill="none" xmlns="http://www.w3.org/2000/svg">
<path d="M8.92725 1.97144H2.021C1.46008 1.97144 1.00537 2.42615 1.00537 2.98706V9.89331C1.00537 10.4542 1.46008 10.9089 2.021 10.9089H8.92725C9.48816 10.9089 9.94287 10.4542 9.94287 9.89331V2.98706C9.94287 2.42615 9.48816 1.97144 8.92725 1.97144Z" stroke="#C58F06" stroke-width="2" stroke-linecap="round" stroke-linejoin="round"/>
<path d="M21.104 1.96436H14.1978C13.6368 1.96436 13.1821 2.41907 13.1821 2.97998V9.88623C13.1821 10.4471 13.6368 10.9019 14.1978 10.9019H21.104C21.6649 10.9019 22.1196 10.4471 22.1196 9.88623V2.97998C22.1196 2.41907 21.6649 1.96436 21.104 1.96436Z" stroke="#C58F06" stroke-width="2" stroke-linecap="round" stroke-linejoin="round"/>
<path d="M8.92188 14.1589H2.01562C1.45471 14.1589 1 14.6136 1 15.1746V22.0808C1 22.6417 1.45471 23.0964 2.01562 23.0964H8.92188C9.48279 23.0964 9.9375 22.6417 9.9375 22.0808V15.1746C9.9375 14.6136 9.48279 14.1589 8.92188 14.1589Z" stroke="#C58F06" stroke-width="2" stroke-linecap="round" stroke-linejoin="round"/>
<path d="M20.9219 14.374H14.0156C13.4547 14.374 13 14.8287 13 15.3896V22.2959C13 22.8568 13.4547 23.3115 14.0156 23.3115H20.9219C21.4828 23.3115 21.9375 22.8568 21.9375 22.2959V15.3896C21.9375 14.8287 21.4828 14.374 20.9219 14.374Z" stroke="#C58F06" stroke-width="2" stroke-linecap="round" stroke-linejoin="round"/>
</svg>
