<svg width="29" height="27" viewBox="0 0 29 27" fill="none" xmlns="http://www.w3.org/2000/svg">
<path d="M3.8125 11.1987V25.0269C3.8125 25.2755 3.91127 25.514 4.08709 25.6898C4.2629 25.8656 4.50136 25.9644 4.75 25.9644H10.375V17.9956C10.375 17.6226 10.5232 17.265 10.7869 17.0012C11.0506 16.7375 11.4083 16.5894 11.7812 16.5894H16.4688C16.8417 16.5894 17.1994 16.7375 17.4631 17.0012C17.7268 17.265 17.875 17.6226 17.875 17.9956V25.9644H23.5C23.7486 25.9644 23.9871 25.8656 24.1629 25.6898C24.3387 25.514 24.4375 25.2755 24.4375 25.0269V11.1987" fill="#FBFBFB"/>
<path d="M3.8125 11.1987V25.0269C3.8125 25.2755 3.91127 25.514 4.08709 25.6898C4.2629 25.8656 4.50136 25.9644 4.75 25.9644H10.375V17.9956C10.375 17.6226 10.5232 17.265 10.7869 17.0012C11.0506 16.7375 11.4083 16.5894 11.7812 16.5894H16.4688C16.8417 16.5894 17.1994 16.7375 17.4631 17.0012C17.7268 17.265 17.875 17.6226 17.875 17.9956V25.9644H23.5C23.7486 25.9644 23.9871 25.8656 24.1629 25.6898C24.3387 25.514 24.4375 25.2755 24.4375 25.0269V11.1987" stroke="#C58F06" stroke-width="2" stroke-linecap="round" stroke-linejoin="round"/>
<path d="M27.25 13.7768L14.7631 1.82368C14.4701 1.51431 13.7852 1.51079 13.4869 1.82368L1 13.7768H27.25ZM22.5625 9.26509V2.52681H19.75V6.56978" fill="#FBFBFB"/>
<path d="M22.5625 9.26509V2.52681H19.75V6.56978M27.25 13.7768L14.7631 1.82368C14.4701 1.51431 13.7852 1.51079 13.4869 1.82368L1 13.7768H27.25Z" stroke="#C58F06" stroke-width="2" stroke-linecap="round" stroke-linejoin="round"/>
</svg>
