<svg width="25" height="21" viewBox="0 0 25 21" fill="none" xmlns="http://www.w3.org/2000/svg">
<path d="M2.625 7.06152V3.40527C2.625 2.86655 2.83901 2.3499 3.21994 1.96896C3.60087 1.58803 4.11753 1.37402 4.65625 1.37402H8.51004C8.9111 1.37403 9.30319 1.49277 9.63688 1.71527L11.0506 2.65777C11.3843 2.88027 11.7764 2.99901 12.1775 2.99902H20.0938C20.6325 2.99902 21.1491 3.21303 21.5301 3.59396C21.911 3.9749 22.125 4.49155 22.125 5.03027V7.06152" stroke="#C58F06" stroke-width="2" stroke-linecap="round" stroke-linejoin="round"/>
<path d="M23.745 8.81602L22.9213 17.2178C22.9213 17.7559 22.7078 18.272 22.3277 18.6528C21.9475 19.0337 21.4318 19.2481 20.8936 19.249H3.85654C3.31843 19.2481 2.80269 19.0337 2.42252 18.6528C2.04236 18.272 1.82884 17.7559 1.82884 17.2178L1.00517 8.81602C0.987292 8.59241 1.01591 8.36753 1.08921 8.15552C1.16251 7.94352 1.27891 7.74899 1.43108 7.58417C1.58325 7.41936 1.76789 7.28784 1.97339 7.19789C2.17888 7.10794 2.40077 7.06151 2.62509 7.06152H22.1302C22.3541 7.06221 22.5754 7.10916 22.7803 7.19942C22.9852 7.28968 23.1692 7.4213 23.3208 7.58604C23.4725 7.75077 23.5884 7.94506 23.6614 8.15672C23.7344 8.36838 23.7629 8.59284 23.745 8.81602V8.81602Z" stroke="#C58F06" stroke-width="2" stroke-linecap="round" stroke-linejoin="round"/>
</svg>
